<svg xmlns="http://www.w3.org/2000/svg" xmlns:xlink="http://www.w3.org/1999/xlink" width="60" height="60" viewBox="0 0 60 60">
    <defs>
        <path id="a" d="M0 .074h6.706v5.31H0z"/>
        <path id="c" d="M.028.027h30.475v27.89H.028z"/>
    </defs>
    <g fill="none" fill-rule="evenodd">
        <circle cx="30" cy="30" r="30" fill="#1D88A7"/>
        <path fill="#FFF" d="M22.4 22.71c.388.503 1.466 1.265 1.623 1.334.074.033.146.057.193.082.002-.166.033-.297.078-.4-.519-.211-1.857-1.89-1.974-2.065-.118-.176-.932-1.608-1.038-1.646-.105-.038-.103.168-.038.559.076.445.767 1.635 1.156 2.137M21.614 23.007c.355.255 2.027 1.505 2.217 1.646a1.8 1.8 0 0 1 .203-.235c-.21-.211-1.886-1.568-2.646-2.215-.813-.691-1.792-2.257-1.861-2.175-.07.081.157.665.359 1.05.201.383 1.352 1.658 1.728 1.929M18.006 24.823c-.445-.164-.314-.063-.314-.063.457.603 1.42 1.006 2.734 1.358 1.14.307 2.421.37 2.737.382.171-.183.353-.272.353-.272l-.003-.024c-.283-.072-1.428-.359-1.873-.375-.51-.02-3.188-.842-3.634-1.006"/>
        <g transform="translate(17 20.614)">
            <mask id="b" fill="#fff">
                <use xlink:href="#a"/>
            </mask>
            <path fill="#FFF" d="M3.778 4.807c1.139.335 2.43.537 2.708.578a1.98 1.98 0 0 1 .22-1.148c-.92-.42-2.932-1.998-3.392-2.372C2.844 1.483 1.388-.11 1.37.092c-.02.201.686 1.188.774 1.314.089.126 1.3 1.289 1.433 1.377.132.088 2.346 1.482 2.346 1.482s-1.491-.646-1.571-.697c-.08-.05-.101-.12-.826-.327-.724-.208-2.125-1.226-2.318-1.4-.194-.175-.9-.952-.906-.85-.006.1.402.774.446.83.044.057.24.357.798.861.559.504 2.049 1.3 2.049 1.3-.403 0-3.626-1.338-3.595-1.18.032.157.924.779.924.779s1.571.848 2.854 1.226" mask="url(#b)"/>
        </g>
        <g transform="translate(17.416 12.056)">
            <mask id="d" fill="#fff">
                <use xlink:href="#c"/>
            </mask>
            <path fill="#FFF" d="M20.557 20.446a.24.24 0 0 0-.09.058c-.036.043-.049.066-.081.066-.016.007-.026.016-.064.02-.051.007-.089-.038-.124-.102-.025-.008-.03-.04-.04-.064-.026-.023-.105-.04-.108-.051-.006-.017.124-.042.263-.036.157.008.324.05.324.078 0 .005-.038.014-.08.031m9.611 1.589c-.174-.057-2.952-.786-3.206-.862-.254-.075-2.533-.583-2.914-.673-.382-.089-2.896-.677-3.037-.706-.141-.028-1.125-.103-1.248-.16a4.385 4.385 0 0 0-.777-.24c-.23-.037-.447-.002-.714.085-.218.02-.43.01-.43.01 0 .07.409.191.409.191h-.327s.064.063-.012.22c-.075.158-.346.372-.371.454-.026.082-.057.17-.089.52-.031.352.454.843.51.918.057.076.603.668.459.68-.145.013-1.208-.396-1.47-.434-.263-.038-.517-.006-.517-.006s-.158-.521-.332-.83c-.175-.308-.39-1.283-.403-1.364-.013-.082-.145-1.245-.151-1.93-.007-.684.214-1.52.308-1.866.095-.347.64-2.018.723-2.238.082-.22.39-1.075.403-1.4a1.904 1.904 0 0 0-.12-.731c-.057-.164-.504-1.804-.504-1.804s-.22-.98-.32-1.415c-.098-.434-.2-.911-.295-1.331-.095-.42-.504-1.736-.611-2.08-.107-.345-.408-1.892-.54-2.553-.132-.662-.189-1.955-.214-2.205-.025-.25-.101-.17-.101-.17-.378.226-.275 1.892-.193 2.595.082.703.243 1.32.288 1.572.044.252.529 1.955.648 2.444.12.49.351.955.351.955s-.357-.703-.433-.848c-.075-.145-.472-1.352-.529-1.507-.056-.156-.577-1.623-.71-1.932-.132-.308-.327-1.199-.422-1.602-.094-.403-.238-1.765-.238-1.765-.357.258-.314 1.539-.301 2.049.012.51.327 1.457.382 1.652.055.195.624 1.791.762 2.15.139.359.886 1.671.886 1.671s-.359-.35-.993-1.52-.904-1.816-.904-1.816c-.663-.768-1.14-1.98-1.253-2.307-.113-.328-.258-.729-.334-.993a6.358 6.358 0 0 1-.119-.492c-.346.095-.156 1.548-.038 2.094.118.546.743 1.553.831 1.685.089.133.748.987.805 1.063.057.075.514 1.068.792 1.57.277.502.722.98.672.987-.05.006-.357-.378-.452-.477-.094-.098-.785-1.188-.842-1.257-.057-.07-.22-.485-.284-.63-.063-.145-.503-.603-.548-.66-.044-.056-.59-.671-.628-.753-.037-.082-.728-.987-.873-1.2-.145-.215-.71-1.321-.748-1.416-.038-.094-.076-.155-.094-.124-.02.032-.063.162-.05.464.012.303.163.735.276 1.126.114.39.93 1.715 1.093 1.948.161.233.806.88.888.974.082.095.823 1.32.987 1.56.164.24.779.628.754.634a.573.573 0 0 1-.271-.063c-.107-.057-1.038-.943-1.157-1.113-.12-.17-.546-.735-.679-.968a3.914 3.914 0 0 0-.609-.753A60.789 60.789 0 0 1 9.606 3.74c-.609-.615-.628-1.056-.716-.95-.088.108.12.629.307 1.063.187.435.655 1.22.686 1.245.032.025.433.502.597.672.164.17.893 1.05 1.653 1.709.76.66 1.245.762 1.258.825.012.063-.357.111-.49.075-.132-.035-1.314-.957-1.453-1.112a206.082 206.082 0 0 0-1.791-1.875c-.378-.39-1.113-.955-1.132-.961-.019-.007-.145-.026-.063.088.082.113.943 1.402.943 1.503 0 .1.974 1.207 1.672 1.829.697.621 1.642.91 1.705.961.063.05-.038.07-.107.12-.07.05-.666-.22-1.504-.716s-2.106-1.768-2.262-1.91c-.156-.144-.428-.48-.472-.46-.044.018-.088.17.176.791.265.622 1.798 1.724 2.514 2.15.716.426 1.371.485 1.422.51.05.025-.02.2-.107.18a10.622 10.622 0 0 1-1.038-.381c-.34-.152-.54-.29-.823-.435-.284-.145-1.157-.729-1.428-.917-.271-.19-.956-.843-.956-.843-.227.347.53 1.126.63 1.233.101.107.704.653 1.546 1.075.842.422 1.993.565 1.987.596a.25.25 0 0 1-.196.158c-.12.012-.439-.082-1.407-.39-.968-.31-1.522-.736-1.766-.937-.244-.202-.787-.71-.87-.804-.081-.095-.069-.013-.069-.013-.031.422 1.063 1.547 1.993 1.986.93.44 2.195.611 2.138.622-.056.01-.854.012-1.224-.08-.37-.093-.756-.19-1.573-.655-.817-.466-1.296-1.025-1.296-1.025-.133.32.624 1.176 1.63 1.692 1.006.517 2.52.546 2.52.546s-.25.082-.44.082c-.188 0-.66.07-2.13-.466-1.569-.57-1.817-.854-1.817-.854-.313.019.03.904.03.904-.609.269-.351.65-.585.75a.914.914 0 0 0-.245.166c-.09.135-.167.358-.073.695 0 0-1.012.465-.702 2.067 0 0-1.033.71-.377 1.714 0 0-.768.85.085 1.833 0 0-.575.807.204 1.481 0 0-.477.63.321 1.136 0 0-.26.773.464 1.278 0 0-.298.797.149 1.312l.29.335c-1.226-.537-.726-1.563-.726-1.563-.494-.756-.33-1.3-.33-1.3-.776-.438-.387-1.154-.387-1.154-.656-.833-.263-1.52-.263-1.52-.563-1.01.018-1.83.018-1.83-.38-.598-.304-1.038-.126-1.333-.96-.146-4.716-.697-4.776-.439-.07.296 1.697.653 1.697.653-.478.02-.855.045-.848.133.033.424 2.604.618 3.121.653l.091.006-.09-.006c-.46-.028-2.517-.133-2.287.251.258.433 2.545.17 1.949.259-.585.086-1.346.419-1.375.432l-.008.023s-.75.72.435 1.733c0 0-.283.675.46 1.214 0 0-.316.846.553 1.353 0 0 .017.752.691.833 0 0-.184.696.616.98 0 0-.577.704.265 1.53.76-.413 1.413-.901 2.84-1.213 2.164-.472 3.255-.412 3.255-.412l-.12.013s-1.578.137-3.622.737c-1.459.429-1.938.685-2.333.896a.374.374 0 0 0 .015.002s-.937.483-1.044.527c-.107.044-1.313.447-2.716.88-1.402.432-2.507.39-2.32.56.187.17.943.451.943.451s-.206.107-.168.158c.037.05.295.279.565.302.19.016.766.019.766.019s-.19.223-.382.277c-.199.055-.331.065-.426.108-.072.033-.04.065.174.136.263.086.874.157 1.308.145.435-.013 1.03-.315 1.03-.315.222.063 1.961.269 3.843.38 1.882.11 4.603-.285 4.998-.396.396-.11 2.411-.247 3.895-.784 1.483-.537 2.165-1.139 3.597-2.005 1.43-.866 1.615-1.421 1.793-1.807.18-.387 0-.777 0-.777.536.264 1.724.424 3.833.607 1.822.158 3.558-.241 4.046-.359a2.377 2.377 0 0 0-.081-.062c-.093-.068-.353-.17-.431-.198-.078-.03-1.979-.328-2.027-.338-.048-.01-1.59-.234-1.689-.256-.1-.023-1.217-.328-1.281-.338-.064-.01-1.793-.426-1.825-.429a9.549 9.549 0 0 0-1.074.043c-.671.054-1.097.337-1.254.35a.994.994 0 0 1-.355-.062c-.738-.349-.441-.765-.441-.765l.085-.055s-.417.367.321.716c0 0 .224.111.38.098.158-.012.558-.333 1.229-.387.67-.055 1.094.029 1.126.032.032.003 1.487.288 1.552.298.064.01 1.449.265 1.548.288.1.022 1.572.364 1.62.374.048.01 1.985.364 2.064.393.078.029.357.083.45.15a1.402 1.402 0 0 0 .218.116c.075-.009.362.123.475.057.113-.066-.132-.31-.306-.367" mask="url(#d)"/>
        </g>
    </g>
</svg>
