<svg xmlns="http://www.w3.org/2000/svg" width="412" height="94" viewBox="0 0 412 94">
    <g fill="#00233F" fill-rule="evenodd">
        <path d="M73.687 86.919v6.223h1.783v-6.223l4.667-8.082h-2.05l-3.508 6.109-3.51-6.11h-2.05l4.668 8.083zm23.87 2.637l1.63 3.586h1.917l-6.83-14.912-6.83 14.912h1.917l1.63-3.586h6.566zm-.74-1.631h-5.085l2.542-5.787 2.543 5.787zM122.2 79.5c-1.082-.664-2.353-.968-3.605-.968-4.212 0-7.608 3.302-7.608 7.532 0 4.136 3.377 7.38 7.456 7.38 1.253 0 2.657-.36 3.757-1.005v-2.106c-1.063.949-2.41 1.48-3.813 1.48-3.188 0-5.616-2.675-5.616-5.806 0-3.168 2.447-5.843 5.653-5.843 1.347 0 2.75.493 3.776 1.404V79.5zm13.242 5.103v-5.767h-1.783v14.305h1.783v-6.868h6.81v6.868h1.785V78.837h-1.784v5.767h-6.811zm24.512-4.135h3.396v-1.632h-8.575v1.632h3.395v12.673h1.784V80.469zm39.67-.968c-1.081-.664-2.353-.968-3.605-.968-4.212 0-7.608 3.302-7.608 7.532 0 4.136 3.377 7.38 7.456 7.38 1.253 0 2.657-.36 3.757-1.005v-2.106c-1.063.949-2.41 1.48-3.813 1.48-3.188 0-5.616-2.675-5.616-5.806 0-3.168 2.447-5.843 5.653-5.843 1.347 0 2.75.493 3.776 1.404V79.5zm13.242 5.103v-5.767h-1.783v14.305h1.783v-6.868h6.81v6.868h1.785V78.837h-1.784v5.767h-6.811zm29.255 4.952l1.63 3.586h1.918l-6.83-14.912-6.83 14.912h1.916l1.632-3.586h6.564zm-.74-1.631h-5.085l2.543-5.787 2.542 5.787zm19.35-1.006c2.069-.247 3.435-1.954 3.435-4.003 0-1.366-.683-2.713-1.878-3.415-1.138-.645-2.504-.664-3.776-.664h-2.162v14.305h1.783V87.09h.74l4.212 6.052h2.162l-4.515-6.223zm-2.598-6.488h.474c1.765 0 3.89.322 3.89 2.56 0 2.277-1.974 2.619-3.795 2.619h-.57v-5.18zm21.48.038h3.397v-1.632h-8.576v1.632h3.396v12.673h1.784V80.469zM293.9 93.142h7.684V91.51h-5.9v-5.407h5.729v-1.631h-5.73v-4.003h5.9v-1.632H293.9v14.305zm23.753-6.223c2.068-.247 3.434-1.954 3.434-4.003 0-1.366-.683-2.713-1.878-3.415-1.138-.645-2.504-.664-3.776-.664h-2.162v14.305h1.783V87.09h.74l4.212 6.052h2.163l-4.516-6.223zm-2.6-6.488h.475c1.765 0 3.89.322 3.89 2.56 0 2.277-1.973 2.619-3.795 2.619h-.57v-5.18zm25.784.265c-.778-1.385-2.087-2.163-3.681-2.163-2.162 0-4.211 1.385-4.211 3.7 0 1.992 1.479 2.922 3.11 3.624l.988.417c1.233.512 2.466 1.176 2.466 2.713 0 1.499-1.101 2.789-2.637 2.789-1.537 0-2.79-1.138-2.77-2.713l-1.802.379c.303 2.296 2.105 4.003 4.42 4.003 2.56 0 4.572-1.86 4.572-4.458 0-2.391-1.518-3.51-3.548-4.307l-1.024-.398c-.892-.342-1.992-.93-1.992-2.05 0-1.251 1.252-2.03 2.39-2.03 1.082 0 1.765.456 2.296 1.348l1.423-.854zM8.755 2.217c9.802 0 24.648.517 24.648 12.562 0 6.059-6.566 11.379-14.656 11.379-3.521 0-4.568-1.773-6.09-1.773-.38 0-.667.222-.667.517 0 .813 3.521 2.735 7.804 2.735 10.182 0 19.319-4.803 19.319-13.597C39.113.887 22.174 0 11.514 0H0c2.759 3.029 3.045 2.734 3.045 8.276v33.326c0 5.541-.286 5.247-3.045 8.276h11.8c-2.759-3.029-3.045-2.735-3.045-8.276V2.217zM98.528 40.493c-2.527 1.752-5.953 7.284-19.934 7.284-8.75 0-9.381-2.311-9.381-7.635V24.664h14.882c4.51 0 4.69.42 7.127 2.1v-6.302c-2.436 1.75-3.337 2.1-6.855 2.1H69.213V4.703h9.742c9.83 0 10.192 1.05 12.808 4.484V2.602H59.38c4.42 2.24 4.42 4.342 4.42 7.844v31.588c0 3.57 0 5.533-4.42 7.844h34.818l4.33-9.385zM134.502 10.446c0-5.253.271-4.973 2.978-7.844h-11.185c2.526 2.871 2.795 2.591 2.795 7.844v31.588c0 3.572 0 5.532-4.418 7.844h34.906l4.33-9.385c-2.525 1.751-5.952 7.284-20.025 7.284-8.749 0-9.38-2.31-9.38-7.635V10.446zM193.992 10.446c0-5.253.27-4.973 2.888-7.844h-11.186c2.617 2.871 2.886 2.591 2.886 7.844v31.588c0 5.253-.27 4.972-2.886 7.844h11.186c-2.617-2.872-2.888-2.59-2.888-7.844V10.446zM270.387 41.905c-2.454 2.312-6.6 6.934-17.173 6.934-15.31 0-26.476-10.016-26.476-22.833 0-13.026 10.488-21.642 25.376-21.642 12.097 0 15.905 5.253 17.766 7.283V3.524c-1.608-.351-10.236-1.961-15.99-1.961-14.97 0-32.904 8.124-32.904 25.214 0 14.777 15.649 24.163 30.114 24.163 9.643 0 12.35-1.121 18.272-2.661l1.014-6.374z"/>
        <path d="M270.387 41.905c-2.454 2.312-6.6 6.934-17.173 6.934-15.31 0-26.476-10.016-26.476-22.833 0-13.026 10.488-21.642 25.376-21.642 12.097 0 15.905 5.253 17.766 7.283V3.524c-1.608-.351-10.236-1.961-15.99-1.961-14.97 0-32.904 8.124-32.904 25.214 0 14.777 15.649 24.163 30.114 24.163 9.643 0 12.35-1.121 18.272-2.661l1.014-6.374zM323.986 26.849h-17.975l9.161-17.581 8.814 17.58zm-7.505-25.284l-21.815 41.252c-2.269 4.272-2.529 4.622-6.63 7.073h9.86c-1.135-.7-2.007-.91-2.007-2.592 0-.77.61-2.381 1.221-3.501l7.766-14.847h20.07l7.853 15.828c.351.7.7 1.4.7 2.1 0 1.61-.96 2.172-1.832 3.012h12.39c-2.794-1.19-3.666-.98-6.284-6.302L316.481 1.565zM408.737 8.765c0-4.55.702-4.693 2.277-6.163h-7.618c1.576 1.47 2.277 1.613 2.277 6.163v32.989L363.639 2.602h-10.683c5.692 2.1 8.144 3.781 10.683 6.654v34.459c0 4.551-.701 4.691-2.276 6.161h7.617c-1.575-1.47-2.276-1.61-2.276-6.162V11.987l42.033 38.942V8.766z"/>
    </g>
</svg>
