<svg xmlns="http://www.w3.org/2000/svg" width="372" height="336" viewBox="0 0 372 336">
    <g fill="#1D88A7" fill-rule="evenodd">
        <path d="M64.97 127.913c4.677 6.04 17.638 15.211 19.532 16.044.894.393 1.754.683 2.322.99.02-1.999.398-3.574.939-4.81-6.244-2.55-22.343-22.745-23.754-24.859-1.42-2.122-11.217-19.357-12.483-19.81-1.266-.456-1.25 2.024-.456 6.721.907 5.36 9.225 19.683 13.9 25.724M55.52 131.475c4.267 3.073 24.392 18.113 26.67 19.817a21.667 21.667 0 0 1 2.445-2.832c-2.526-2.543-22.687-18.878-31.843-26.664-9.778-8.314-21.555-27.164-22.39-26.178-.833.985 1.896 8.011 4.32 12.634 2.427 4.623 16.273 19.964 20.798 23.223M12.106 153.333c-5.358-1.97-3.784-.755-3.784-.755 5.509 7.254 17.1 12.101 32.896 16.345 13.726 3.688 29.135 4.46 32.938 4.6 2.059-2.21 4.252-3.275 4.252-3.275-.018-.1-.03-.195-.046-.293-3.395-.869-17.175-4.32-22.538-4.519-6.141-.227-38.358-10.133-43.718-12.103M45.462 160.533c13.696 4.034 29.237 6.46 32.575 6.957-.535-5.919.835-10.484 2.65-13.815-11.067-5.055-35.281-24.052-40.81-28.544-5.662-4.6-23.17-23.776-23.397-21.35-.228 2.425 8.26 14.301 9.322 15.817 1.062 1.516 15.643 15.515 17.235 16.576 1.592 1.061 28.225 17.841 28.225 17.841s-17.94-7.784-18.902-8.39c-.963-.607-1.213-1.44-9.93-3.94-8.715-2.503-25.572-14.758-27.897-16.857-2.328-2.1-10.816-11.445-10.893-10.232-.075 1.213 4.829 9.322 5.359 10.004.53.682 2.88 4.298 9.603 10.361 6.723 6.063 24.654 15.654 24.654 15.654-4.851 0-43.632-16.109-43.253-14.214.379 1.895 11.119 9.375 11.119 9.375s18.902 10.21 34.34 14.757"/>
        <path d="M252.35 245.766c-.388.16-.808.383-1.08.697-.44.51-.592.786-.981.786-.187.084-.314.198-.77.254-.618.078-1.07-.467-1.493-1.233-.302-.1-.37-.493-.471-.77-.322-.285-1.271-.496-1.311-.618-.067-.2 1.5-.509 3.17-.428 1.885.091 3.9.602 3.9.934 0 .063-.456.167-.963.378m115.64 19.117c-2.094-.68-35.52-9.46-38.578-10.367-3.06-.906-30.478-7.025-35.066-8.1-4.588-1.075-34.84-8.159-36.54-8.498-1.7-.34-13.538-1.247-15.011-1.927-1.473-.68-6.572-2.435-9.346-2.888-2.776-.453-5.388-.026-8.602 1.014-2.618.241-5.164.131-5.164.131 0 .833 4.91 2.296 4.91 2.296l-3.923-.005s.764.762-.146 2.657-4.168 4.472-4.472 5.457c-.303.985-.682 2.047-1.061 6.268-.378 4.222 5.457 10.133 6.139 11.043.683.91 7.254 8.034 5.51 8.185-1.742.152-14.53-4.775-17.69-5.229-3.16-.455-6.215-.076-6.215-.076s-1.894-6.268-3.994-9.982c-2.1-3.713-4.7-15.438-4.851-16.424-.15-.985-1.742-14.983-1.818-23.222-.076-8.238 2.577-18.296 3.713-22.465 1.138-4.168 7.708-24.283 8.694-26.936.985-2.652 4.699-12.937 4.85-16.855.153-3.919-.757-6.822-1.44-8.792-.682-1.97-6.063-21.707-6.063-21.707s-2.653-11.8-3.843-17.03c-1.19-5.229-2.424-10.967-3.56-16.022-1.14-5.055-6.064-20.896-7.353-25.04-1.29-4.147-4.904-22.769-6.496-30.727-1.591-7.958-2.273-23.526-2.576-26.534-.303-3.009-1.218-2.05-1.218-2.05-4.547 2.728-3.307 22.771-2.322 31.237.986 8.465 2.933 15.893 3.464 18.925.53 3.031 6.367 23.525 7.807 29.414 1.44 5.89 4.22 11.497 4.22 11.497s-4.297-8.465-5.206-10.208c-.91-1.744-5.685-16.273-6.366-18.145-.682-1.872-6.951-19.53-8.542-23.245-1.591-3.714-3.941-14.43-5.078-19.28C163.62 16.4 161.893 0 161.893 0c-4.3 3.108-3.782 18.523-3.63 24.663.152 6.14 3.94 17.537 4.6 19.887.66 2.35 7.504 21.555 9.17 25.875 1.668 4.32 10.665 20.115 10.665 20.115s-4.32-4.22-11.952-18.296c-7.632-14.074-10.881-21.859-10.881-21.859-7.97-9.246-13.706-23.828-15.071-27.769-1.364-3.94-3.107-8.769-4.016-11.952-.91-3.183-1.434-5.917-1.434-5.917-4.17 1.137-1.88 18.627-.461 25.198 1.417 6.571 8.943 18.698 10.004 20.29 1.062 1.591 8.997 11.876 9.678 12.785.683.91 6.193 12.862 9.528 18.903 3.334 6.04 8.693 11.8 8.086 11.876-.606.076-4.297-4.548-5.433-5.738-1.138-1.189-9.451-14.3-10.133-15.135-.683-.834-2.654-5.836-3.411-7.579-.758-1.743-6.064-7.253-6.595-7.935-.53-.682-7.101-8.087-7.557-9.072-.453-.986-8.768-11.877-10.51-14.454-1.744-2.577-8.543-15.893-8.998-17.03-.454-1.137-.91-1.872-1.137-1.493-.227.38-.758 1.948-.606 5.586.152 3.638 1.97 8.845 3.335 13.544 1.364 4.7 11.194 20.645 13.143 23.45 1.946 2.803 9.7 10.587 10.686 11.724.986 1.137 9.906 15.893 11.876 18.774 1.97 2.88 9.376 7.556 9.072 7.632-.303.075-1.97-.076-3.258-.758-1.288-.683-12.483-11.346-13.923-13.392-1.441-2.047-6.571-8.845-8.163-11.65-1.591-2.804-5.23-7.177-7.328-9.072-2.101-1.894-9.324-9.095-16.651-16.499-7.33-7.405-7.557-12.71-8.62-11.422-1.06 1.288 1.44 7.556 3.692 12.786 2.25 5.23 7.882 14.68 8.26 14.984.38.303 5.209 6.04 7.178 8.087 1.97 2.046 10.74 12.634 19.888 20.57 9.149 7.935 14.985 9.17 15.136 9.928.152.758-4.298 1.341-5.89.91-1.59-.433-15.817-11.52-17.484-13.393-1.667-1.872-17.008-17.864-21.555-22.563-4.547-4.699-13.392-11.497-13.62-11.573-.227-.076-1.743-.303-.758 1.061.986 1.364 11.346 16.878 11.346 18.091 0 1.213 11.725 14.53 20.116 22.01 8.389 7.48 19.758 10.967 20.517 11.573.757.606-.456.834-1.29 1.44-.833.607-8.011-2.652-18.091-8.617-10.08-5.965-25.345-21.275-27.217-22.995-1.872-1.72-5.152-5.76-5.684-5.533-.53.227-1.06 2.046 2.122 9.527 3.183 7.481 21.63 20.744 30.249 25.875 8.617 5.131 16.499 5.836 17.105 6.14.607.302-.226 2.402-1.288 2.174-1.061-.227-8.39-2.78-12.483-4.6-4.092-1.819-6.495-3.487-9.906-5.23-3.411-1.743-13.922-8.769-17.181-11.042-3.26-2.274-11.498-10.138-11.498-10.138-2.73 4.168 6.366 13.548 7.579 14.837 1.214 1.288 8.466 7.86 18.599 12.937 10.133 5.078 23.98 6.798 23.905 7.177-.076.38-.91 1.744-2.35 1.895-1.44.152-5.282-.985-16.931-4.699-11.65-3.714-18.318-8.845-21.252-11.27-2.933-2.425-9.474-8.542-10.46-9.679-.985-1.136-.838-.15-.838-.15-.38 5.078 12.79 18.621 23.985 23.903 11.194 5.283 26.405 7.352 25.724 7.481-.682.13-10.285.152-14.735-.963-4.448-1.114-9.094-2.273-18.924-7.882-9.831-5.608-15.597-12.333-15.597-12.333-1.592 3.843 7.51 14.152 19.614 20.367 12.104 6.215 30.323 6.571 30.323 6.571s-3.008.985-5.282.985c-2.273 0-7.958.834-25.647-5.608-18.87-6.872-21.858-10.285-21.858-10.285-3.768.227.369 10.886.369 10.886-7.33 3.236-4.234 7.812-7.04 9.024-1.118.484-2.133 1.254-2.953 2.005-1.091 1.623-2.012 4.306-.882 8.354 0 0-12.171 5.601-8.437 24.88 0 0-12.433 8.55-4.547 20.636 0 0-9.241 10.217 1.032 22.055 0 0-6.922 9.714 2.45 17.831 0 0-5.742 7.57 3.869 13.672 0 0-3.141 9.305 5.579 15.381 0 0-3.593 9.596 1.789 15.785 2.28 2.623 3.498 4.036 3.498 4.036-14.754-6.458-8.738-18.817-8.738-18.817-5.951-9.098-3.984-15.63-3.984-15.63-9.333-5.285-4.65-13.897-4.65-13.897-7.895-10.027-3.157-18.293-3.157-18.293-6.781-12.163.209-22.026.209-22.026-4.56-7.205-3.66-12.499-1.514-16.053-11.544-1.747-56.742-8.382-57.468-5.275-.835 3.563 20.425 7.86 20.425 7.86-5.76.228-10.29.532-10.207 1.597.4 5.108 31.335 7.442 37.555 7.86.689.041 1.097.07 1.097.07s-.401-.024-1.097-.07c-5.525-.338-30.27-1.604-27.508 3.025 3.108 5.207 30.628 2.047 23.45 3.108-7.04 1.041-16.196 5.044-16.546 5.198l-.095.285s-9.02 8.667 5.232 20.855c0 0-3.405 8.121 5.547 14.607 0 0-3.812 10.191 6.64 16.283 0 0 .21 9.062 8.32 10.028 0 0-2.216 8.375 7.417 11.802 0 0-6.953 8.467 3.18 18.415 9.14-4.972 17.006-10.848 34.184-14.598 26.03-5.682 39.15-4.97 39.15-4.97l-1.441.163s-18.99 1.644-43.583 8.873c-17.55 5.16-23.311 8.24-28.061 10.776.106.016.17.023.17.023s-11.27 5.813-12.557 6.344c-1.288.53-15.795 5.381-32.674 10.588-16.88 5.207-30.172 4.7-27.921 6.745 2.25 2.046 11.346 5.434 11.346 5.434s-2.48 1.29-2.023 1.895c.453.607 3.553 3.358 6.797 3.638 2.297.198 9.224.228 9.224.228s-2.285 2.691-4.6 3.334c-2.394.665-3.988.784-5.12 1.3-.876.398-.49.785 2.088 1.633 3.169 1.043 10.513 1.895 15.742 1.744 5.23-.152 12.392-3.785 12.392-3.785 2.664.761 23.596 3.236 46.242 4.568 22.646 1.332 55.38-3.426 60.138-4.758 4.758-1.332 29.01-2.98 46.855-9.439 17.846-6.459 26.06-13.709 43.28-24.133 17.22-10.425 19.432-17.107 21.584-21.753 2.153-4.646-.01-9.347-.01-9.347 6.459 3.173 20.744 5.1 46.124 7.307 21.922 1.907 42.816-2.9 48.689-4.32a28.6 28.6 0 0 0-.982-.752c-1.118-.809-4.245-2.036-5.185-2.383-.942-.346-23.81-3.948-24.388-4.064-.578-.116-19.127-2.814-20.323-3.083-1.194-.27-14.645-3.949-15.417-4.065-.77-.115-21.566-5.125-21.951-5.163-.386-.039-4.857-.143-12.93.512-8.072.656-13.198 4.061-15.086 4.215-1.89.154-4.267-.739-4.267-.739-8.881-4.2-5.315-9.212-5.315-9.212l1.028-.668s-5.015 4.417 3.867 8.62c0 0 2.686 1.341 4.575 1.187 1.888-.154 6.707-4.009 14.779-4.664 8.072-.655 13.16.347 13.545.385.386.04 17.902 3.47 18.674 3.585.77.116 17.437 3.2 18.63 3.47 1.197.27 18.912 4.383 19.49 4.5.578.115 23.89 4.381 24.832 4.728.942.347 4.296 1.002 5.413 1.811.698.506 1.848 1.058 2.612 1.402a.07.07 0 0 1 .014-.003c.907-.113 4.362 1.473 5.72.68 1.36-.793-1.585-3.739-3.68-4.419"/>
    </g>
</svg>
